<svg xmlns="http://www.w3.org/2000/svg" viewBox="0 0 121 119.28"><defs><style>.cls-1{fill:#e4e8f8}.cls-2{fill:none;stroke:#204ecf;stroke-linejoin:round}</style></defs><g id="Layer_2" data-name="Layer 2"><g id="Icons"><path class="cls-1" d="M60.44 17.76a41.86 41.86 0 1 0 41.85 41.86 41.86 41.86 0 0 0-41.85-41.86zm0 73.86a32 32 0 1 1 32-32 32 32 0 0 1-32 32z"/><path class="cls-1" d="M77.56 59.3L51.7 44.37v29.85L77.56 59.3z"/><path class="cls-2" d="M120.18 66.41a57 57 0 0 0-.05-12.52L111 50.63A55.68 55.68 0 0 0 107 38l5.59-7.9a68.81 68.81 0 0 0-7.15-10.28L96 22.5a61.58 61.58 0 0 0-10.63-8.06V4.69A70.62 70.62 0 0 0 73.48.64l-5.92 7.72a50.67 50.67 0 0 0-13.36.05L48.35.5a49.2 49.2 0 0 0-11.9 3.76l-.24 9.83a54.49 54.49 0 0 0-11 7.65L16 18.82A54.87 54.87 0 0 0 8.58 29l5.59 8a45 45 0 0 0-4.06 12.71L.82 52.87a57 57 0 0 0 .05 12.52L10 68.64a55.76 55.76 0 0 0 4 12.67L8.4 89.2a68.81 68.81 0 0 0 7.15 10.28L25 96.77a61.63 61.63 0 0 0 10.63 8.07v9.75a71.53 71.53 0 0 0 11.87 4l5.92-7.73a50.66 50.66 0 0 0 13.36 0l5.85 7.91A49.22 49.22 0 0 0 84.55 115l.24-9.83a54.84 54.84 0 0 0 11-7.64l9.28 2.92a54.87 54.87 0 0 0 7.39-10.14l-5.59-8a45 45 0 0 0 4.06-12.71z"/><circle class="cls-2" cx="60.44" cy="59.62" r="32"/><path class="cls-2" d="M77.56 59.3L51.7 44.37v29.85L77.56 59.3z"/></g></g></svg>