<svg xmlns="http://www.w3.org/2000/svg" viewBox="0 0 121 121"><defs><style>.cls-1{fill:#e4e8f8}.cls-2{fill:none;stroke:#204ecf;stroke-linejoin:round}</style></defs><g id="Layer_2" data-name="Layer 2"><g id="Icons"><path class="cls-1" d="M31.71 9.28a3.11 3.11 0 1 1-6.22 0H22a3.11 3.11 0 1 1-6.22 0h-3.43a3.12 3.12 0 0 1-6.23 0H.5v8.47h120V9.28zM77.83 96.37L73.45 92l.18-.18c-.44.36-.9.71-1.36 1.06l-.14.09c-.4.29-.8.57-1.21.84l-.41.26c-.35.23-.71.45-1.06.66l-.37.22c-1 .55-2 1.06-3 1.52a33.3 33.3 0 0 1-26.8 0c-.54-.24-1.08-.49-1.61-.76h-.11c-.5-.26-1-.53-1.47-.8l-.09-.09c-.5-.29-1-.59-1.46-.9h-.05A33.34 33.34 0 0 1 19.33 66v6a33.18 33.18 0 0 0 4.06 16H4.33A3.84 3.84 0 0 1 .5 84.17v8.32a4 4 0 0 0 4 4H30a33.23 33.23 0 0 0 45.14 0h2.56zM116.67 88H81.8a33.09 33.09 0 0 0 4.08-15.93V66a33.16 33.16 0 0 1-7.33 20.83L79.7 88l3.3 3.25 1.47-1.46 6.71 6.71h25.36a4 4 0 0 0 4-4v-8.33a3.84 3.84 0 0 1-3.87 3.83z"/><path class="cls-2" d="M120.5 24.75V92.5a4 4 0 0 1-4 4H91M39.24 96.5H4.5a4 4 0 0 1-4-4V24.75"/><circle class="cls-2" cx="9.24" cy="9.28" r="3.11"/><circle class="cls-2" cx="18.92" cy="9.28" r="3.11"/><circle class="cls-2" cx="28.6" cy="9.28" r="3.11"/><path class="cls-2" d="M120.5 17.75H.5V4.5a4 4 0 0 1 4-4h112a4 4 0 0 1 4 4z"/><circle class="cls-2" cx="52.61" cy="66.02" r="33.27"/><path class="cls-2" transform="rotate(-45 91.732 105.143)" d="M86.04 89.11h11.38v32.06H86.04z"/><path class="cls-2" d="M73.45 91.98l4.38 4.39M78.57 86.86l4.38 4.39M77.7 96.5H65.97"/></g></g></svg>