<svg xmlns="http://www.w3.org/2000/svg" viewBox="0 0 121 120.44"><defs><style>.cls-2{fill:none;stroke:#204ecf;stroke-linejoin:round}</style></defs><g id="Layer_2" data-name="Layer 2"><g id="Icons"><path d="M68.43 90.37c-10.48 3-22.24-.61-30.5-8.87a30.89 30.89 0 0 1-9.07-22.29l27 15.71a16.38 16.38 0 0 0 6.46-4.12A29.6 29.6 0 0 0 71 50L43.69 34.13a31 31 0 0 1 46 35l8.43 8.57a41.33 41.33 0 1 0-21.63 20.76z" fill="#e4e8f8"/><path class="cls-2" d="M108.69 78.52c.65-1.88 1.19-3.82 1.66-5.79L119.8 70a57.48 57.48 0 0 0 .58-12.52l-8.94-3.7a55.4 55.4 0 0 0-3.37-12.86l6-7.61a68.36 68.36 0 0 0-6.63-10.64l-9.58 2.24a61.94 61.94 0 0 0-10.22-8.6l.48-9.74A70.69 70.69 0 0 0 76.44 1.9l-6.3 7.42a51.18 51.18 0 0 0-13.36-.63L51.34.5a49.08 49.08 0 0 0-12.09 3.16l-.73 9.81a54.92 54.92 0 0 0-11.34 7.09l-9.13-3.38a55.48 55.48 0 0 0-7.89 9.75l5.19 8.27a45 45 0 0 0-4.7 12.49L1.2 50.44A57.39 57.39 0 0 0 .62 63l8.94 3.71a55.53 55.53 0 0 0 3.37 12.86L7 87.13a67.82 67.82 0 0 0 6.63 10.63l9.58-2.23a62.43 62.43 0 0 0 10.22 8.6l-.48 9.74a70.65 70.65 0 0 0 11.66 4.64l6.3-7.42a50.75 50.75 0 0 0 13.36.63l5.44 8.2a49.08 49.08 0 0 0 12.09-3.16l.25-3.38"/><path class="cls-2" d="M120.06 100.08L89.64 69.16a31 31 0 0 0-45.95-35L71 50a29.6 29.6 0 0 1-8.64 20.8 16.38 16.38 0 0 1-6.46 4.12l-27-15.71a30.89 30.89 0 0 0 9.03 22.29c8.26 8.26 20 11.88 30.5 8.87l29.63 29.71"/></g></g></svg>