<svg xmlns="http://www.w3.org/2000/svg" viewBox="0 0 121 121"><defs><style>.cls-1{fill:#e4e8f8}.cls-2{fill:none;stroke:#204ecf;stroke-linejoin:round}</style></defs><g id="Layer_2" data-name="Layer 2"><g id="Icons"><path class="cls-1" d="M115.91 28.08a17.23 17.23 0 0 1 2.87 9.47c0 10.14-8.92 18.37-19.91 18.37H22.13c-11 0-19.91-8.23-19.91-18.37a17.23 17.23 0 0 1 2.87-9.47A20.49 20.49 0 0 0 21 61.5h79a20.49 20.49 0 0 0 15.91-33.42z"/><circle class="cls-1" cx="86.5" cy="98.5" r="4.42"/><circle class="cls-1" cx="98.5" cy="79.5" r="4.42"/><circle class="cls-1" cx="22.5" cy="79.5" r="4.42"/><circle class="cls-1" cx="34.5" cy="98.5" r="4.42"/><circle class="cls-1" cx="60.5" cy="113.5" r="4.42"/><path class="cls-2" d="M60.5 106V67.5M52.5 67.5v31H42M44.5 67.5v12H30M68.5 67.5v31H80M76.5 67.5v12H92"/><circle class="cls-2" cx="60.5" cy="113.5" r="7"/><circle class="cls-2" cx="34.5" cy="98.5" r="7"/><circle class="cls-2" cx="22.5" cy="79.5" r="7"/><circle class="cls-2" cx="86.5" cy="98.5" r="7"/><circle class="cls-2" cx="98.5" cy="79.5" r="7"/><path class="cls-2" d="M100.5 20.53H88.28a30 30 0 0 0-56.54 0H20.5a20.49 20.49 0 0 0 .5 41h79a20.49 20.49 0 0 0 .5-41z"/></g></g></svg>