<svg xmlns="http://www.w3.org/2000/svg" viewBox="0 0 121 121"><defs><style>.cls-2{fill:none;stroke:#204ecf;stroke-linejoin:round}</style></defs><g id="Layer_2" data-name="Layer 2"><g id="Icons"><path d="M107.94 40.7l-.41.18c-.52.22-1.06.41-1.6.59l-.32.1c-.61.19-1.22.35-1.85.48h-.09a21.32 21.32 0 0 1-4.18.42A20.95 20.95 0 0 1 80.6 12.4a52.13 52.13 0 0 0-51.71 89.54l12.75-5a7.83 7.83 0 0 0 5-7.28v-5.34a19.26 19.26 0 0 0 27.8 0v5.33a7.82 7.82 0 0 0 5 7.28l12.74 5a52.13 52.13 0 0 0 18.31-56.43 21 21 0 0 0 10-17.89V21.5a21 21 0 0 1-12.55 19.2zm-22.2 15.47L84.65 62a4.16 4.16 0 0 1-4.08 3.38 40.22 40.22 0 0 1-4 10.35 19 19 0 0 1-2.73 3.69 18.3 18.3 0 0 1-26.6 0 18.65 18.65 0 0 1-2.75-3.69 39.84 39.84 0 0 1-4-10.35A4.14 4.14 0 0 1 36.37 62l-1.11-5.81a3.7 3.7 0 0 1 3.64-4.4h.47v-4.17A21.14 21.14 0 0 1 60.51 26.5h13.33s1 1.66-.52 4.33a21.13 21.13 0 0 1 8.31 16.79v4.15h.49a3.69 3.69 0 0 1 3.62 4.4z" fill="#e4e8f8"/><path class="cls-2" d="M46.5 78.67v11.2a7.53 7.53 0 0 1-4.77 7L26.14 103M74.5 78.67v11.2a7.53 7.53 0 0 0 4.77 7L94.86 103M117.61 42.06A59.95 59.95 0 1 1 78.94 3.39"/><circle class="cls-2" cx="99.5" cy="21.5" r="21"/><path class="cls-2" d="M99.5 10.5v22M110.5 21.5h-22M82.07 51.73h-.48v-4.14a21.08 21.08 0 0 0-8.3-16.77c1.57-2.66.53-4.32.53-4.32H60.5a21.09 21.09 0 0 0-21.09 21.09v4.14h-.48a3.69 3.69 0 0 0-3.63 4.39l1.1 5.78a4.14 4.14 0 0 0 4.07 3.36 40.27 40.27 0 0 0 4 10.34 18.33 18.33 0 0 0 32 0 40.27 40.27 0 0 0 4-10.34 4.14 4.14 0 0 0 4.13-3.36l1.1-5.78a3.69 3.69 0 0 0-3.63-4.39z"/></g></g></svg>