<?xml version="1.0" encoding="utf-8"?>
<!-- Generator: Adobe Illustrator 16.0.0, SVG Export Plug-In . SVG Version: 6.00 Build 0)  -->
<!DOCTYPE svg PUBLIC "-//W3C//DTD SVG 1.1//EN" "http://www.w3.org/Graphics/SVG/1.1/DTD/svg11.dtd">
<svg version="1.1" id="Layer_1" xmlns="http://www.w3.org/2000/svg" xmlns:xlink="http://www.w3.org/1999/xlink" x="0px" y="0px"
	 width="3000px" height="3000px" viewBox="0 0 3000 3000" enable-background="new 0 0 3000 3000" xml:space="preserve">
<title>Zabbix logo</title>
<g>
	<g>
		<defs>
			<rect id="SVGID_1_" x="56.618" y="1121.972" width="2886.764" height="756.057"/>
		</defs>
		<clipPath id="SVGID_2_">
			<use xlink:href="#SVGID_1_"  overflow="visible"/>
		</clipPath>
		<path clip-path="url(#SVGID_2_)" fill="#D40000" d="M56.618,1121.972h2886.764v756.057H56.618V1121.972z"/>
	</g>
	<g>
		<defs>
			<rect id="SVGID_3_" x="56.618" y="1121.972" width="2886.764" height="756.057"/>
		</defs>
		<clipPath id="SVGID_4_">
			<use xlink:href="#SVGID_3_"  overflow="visible"/>
		</clipPath>
		<path clip-path="url(#SVGID_4_)" fill="#FFFFFF" d="M180.337,1237.099h417.55v54.985l-336.789,410.677h345.38v60.141H171.745
			v-54.985l336.789-410.677H180.337V1237.099z M888.281,1307.549l-97.944,261.184h195.888L888.281,1307.549z M847.042,1237.099
			h80.76l202.762,525.803h-73.888l-48.112-134.028H767.999l-48.112,134.028h-75.605L847.042,1237.099z M1280.056,1512.028v192.451
			h115.127c39.521,0,67.015-8.592,85.916-24.057s27.493-39.521,27.493-72.169c0-32.648-8.592-56.704-27.493-72.169
			s-48.113-24.057-85.916-24.057H1280.056L1280.056,1512.028z M1280.056,1295.521v158.084h106.535
			c34.367,0,61.859-6.873,79.043-18.901c17.184-13.746,25.774-32.647,25.774-60.141c0-25.774-8.591-46.395-25.774-60.141
			c-17.184-13.747-42.958-18.901-79.043-18.901H1280.056z M1207.888,1237.099h183.858c54.986,0,96.226,12.028,127.155,34.366
			c29.211,22.338,44.676,54.985,44.676,96.226c0,32.647-6.873,58.422-22.338,77.323c-15.465,18.902-37.803,30.93-67.014,36.085
			c36.084,6.873,63.577,22.338,82.479,46.395s29.211,53.268,29.211,89.353c0,46.394-15.465,82.479-48.112,108.253
			s-77.324,37.803-137.465,37.803h-192.45V1237.099z M1773.212,1512.028v192.451h115.127c37.803,0,67.014-8.592,85.915-24.057
			s27.493-39.521,27.493-72.169c0-32.648-8.592-56.704-27.493-72.169s-48.112-24.057-85.915-24.057H1773.212L1773.212,1512.028z
			 M1773.212,1295.521v158.084h106.535c34.366,0,61.859-6.873,79.042-18.901c17.184-13.746,25.774-32.647,25.774-60.141
			c0-25.774-8.591-46.395-25.774-60.141c-17.183-13.747-42.958-18.901-79.042-18.901H1773.212z M1701.042,1237.099h183.859
			c54.986,0,96.226,12.028,127.155,34.366c29.212,22.338,44.677,54.985,44.677,96.226c0,32.647-6.873,58.422-22.338,77.323
			c-15.465,18.902-37.804,30.93-67.015,36.085c36.085,6.873,63.577,22.338,82.479,46.395c18.9,24.057,29.211,53.268,29.211,89.353
			c0,46.395-15.465,82.479-48.113,108.253c-32.647,25.775-77.324,37.803-137.465,37.803h-192.451V1237.099z M2400.396,1237.099
			h79.043l125.437,189.014l127.154-189.014h75.606l-164.959,245.719l185.578,280.084h-79.043l-146.056-219.943L2457.1,1762.901
			h-77.324l185.578-278.366L2400.396,1237.099z M2192.479,1237.099h72.17v525.803h-72.17V1237.099z"/>
	</g>
</g>
</svg>
